<?xml version="1.0" encoding="iso-8859-1"?>
<!-- Uploaded to: SVG Repo, www.svgrepo.com, Generator: SVG Repo Mixer Tools -->
<svg version="1.1" id="Layer_1" xmlns="http://www.w3.org/2000/svg" xmlns:xlink="http://www.w3.org/1999/xlink" 
	 viewBox="0 0 512 512" xml:space="preserve">
<path style="fill:#4281CD;" d="M61.569,123.82h88.881c0-17.523-14.219-31.777-31.698-31.777c-1.091,0-2.181,0.061-3.263,0.169
	c-5.496-14.399-19.342-24.125-35.04-24.125S50.907,77.814,45.41,92.212c-1.084-0.109-2.172-0.169-3.265-0.169
	c-17.477,0-31.696,14.255-31.696,31.777H61.569z"/>
<polygon style="fill:#DEDDE1;" points="140.931,303.543 10.449,303.543 40.986,235.188 184.424,235.188 327.053,235.188 
	462.949,235.188 501.551,303.543 369.894,303.543 "/>
<polygon style="fill:#CE1128;" points="368.718,303.543 475.429,303.543 475.429,479.086 36.571,479.086 36.571,303.543 
	143.151,303.543 "/>
<g>
	<polygon style="fill:#FF3131;" points="360.239,337.618 256,270.609 151.761,337.618 151.761,479.086 360.239,479.086 	"/>
	<polygon style="fill:#FF3131;" points="326.158,274.808 326.158,154.014 256,89.514 185.842,154.014 185.842,274.808 	"/>
</g>
<path style="fill:#4281CD;" d="M224.653,249.208v-34.715c0-17.176,14.033-31.098,31.347-31.098l0,0
	c17.314,0,31.347,13.922,31.347,31.098v34.715H224.653z"/>
<g>
	<polygon style="fill:#DEDDE1;" points="326.158,154.014 256,89.514 185.842,154.014 	"/>
	<path style="fill:#DEDDE1;" d="M376.373,347.979L256,270.598L135.627,347.98l-17.786-27.666l129.266-83.099
		c5.418-3.478,12.368-3.478,17.786,0l129.266,83.099L376.373,347.979z"/>
</g>
<g>
	<rect x="221.257" y="374.847" style="fill:#4281CD;" width="69.496" height="104.239"/>
	<rect x="74.313" y="371.461" style="fill:#4281CD;" width="39.706" height="39.706"/>
</g>
<polygon style="fill:#FF772C;" points="318.694,68.419 256,68.419 256,32.914 318.694,32.914 304,50.667 "/>
<rect x="397.981" y="371.461" style="fill:#4281CD;" width="39.706" height="39.706"/>
<path d="M114.019,421.616H74.313c-5.77,0-10.449-4.679-10.449-10.449v-39.706c0-5.77,4.679-10.449,10.449-10.449h39.706
	c5.77,0,10.449,4.679,10.449,10.449v39.706C124.468,416.938,119.79,421.616,114.019,421.616z M84.762,400.718h18.808V381.91H84.762
	V400.718z"/>
<path d="M141.246,278.432h-0.137c-5.77,0-10.449-4.679-10.449-10.449c0-5.77,4.679-10.449,10.449-10.449h0.137
	c5.77,0,10.449,4.679,10.449,10.449C151.695,273.753,147.016,278.432,141.246,278.432z"/>
<path d="M366.64,278.433h-0.138c-5.77,0-10.449-4.679-10.449-10.449s4.679-10.449,10.449-10.449h0.138
	c5.77,0,10.449,4.679,10.449,10.449S372.41,278.433,366.64,278.433z"/>
<path d="M437.687,421.616h-39.706c-5.77,0-10.449-4.679-10.449-10.449v-39.706c0-5.77,4.679-10.449,10.449-10.449h39.706
	c5.77,0,10.449,4.679,10.449,10.449v39.706C448.136,416.938,443.457,421.616,437.687,421.616z M408.43,400.718h18.808V381.91H408.43
	V400.718z"/>
<path d="M150.45,134.269H61.569c-5.77,0-10.449-4.679-10.449-10.449s4.679-10.449,10.449-10.449h75.703
	c-3.648-6.489-10.583-10.879-18.521-10.879c-0.695,0-1.443,0.04-2.225,0.117c-4.687,0.484-9.119-2.264-10.801-6.671
	c-3.973-10.409-14.13-17.402-25.277-17.402c-11.145,0-21.303,6.993-25.276,17.402c-1.682,4.406-6.104,7.15-10.8,6.671
	c-0.794-0.078-1.522-0.117-2.228-0.117c-11.715,0-21.246,9.568-21.246,21.328c0,5.77-4.679,10.449-10.449,10.449
	C4.678,134.269,0,129.59,0,123.82c0-22.18,17.153-40.421,38.866-42.1c8.456-14.652,24.353-24.082,41.582-24.082
	c17.229,0,33.127,9.429,41.583,24.082c21.713,1.682,38.867,19.921,38.867,42.1C160.899,129.591,156.22,134.269,150.45,134.269z"/>
<path d="M255.999,418.109c-5.77,0-10.449-4.679-10.449-10.449v-0.138c0-5.77,4.679-10.449,10.449-10.449s10.449,4.679,10.449,10.449
	v0.138C266.448,413.43,261.77,418.109,255.999,418.109z"/>
<path d="M501.551,468.637h-15.673V313.992h15.673c3.716,0,7.151-1.973,9.025-5.182c1.872-3.208,1.901-7.17,0.073-10.405
	l-38.602-68.355c-1.853-3.282-5.33-5.311-9.098-5.311H336.607v-70.726c0-2.924-1.225-5.714-3.377-7.691l-66.78-61.394v-6.058h52.245
	c4.048,0,7.731-2.337,9.455-6.001c1.724-3.663,1.176-7.991-1.406-11.11l-9.178-11.091l9.178-11.09
	c2.582-3.118,3.129-7.447,1.406-11.11s-5.407-6.002-9.455-6.002H256c-5.77,0-10.449,4.679-10.449,10.449v52.013l-66.779,61.394
	c-2.154,1.979-3.377,4.768-3.377,7.691v70.726H40.986c-4.122,0-7.859,2.423-9.54,6.187L0.909,299.281
	c-1.444,3.233-1.154,6.978,0.773,9.948c1.927,2.971,5.226,4.763,8.767,4.763h15.673v154.645H10.449
	C4.678,468.637,0,473.316,0,479.086s4.678,10.449,10.449,10.449h491.102c5.77,0,10.449-4.679,10.449-10.449
	S507.322,468.637,501.551,468.637z M266.449,43.363h30.031l-0.53,0.641c-3.201,3.865-3.201,9.459,0,13.325l0.531,0.642h-30.032
	V43.363z M256,103.708l43.353,39.857h-86.705L256,103.708z M196.292,164.463h119.416v92.997l-17.913-11.516v-31.451
	c0-22.909-18.75-41.547-41.796-41.547s-41.796,18.638-41.796,41.547v31.451l-17.913,11.515v-92.996H196.292z M276.898,214.493
	v18.017l-6.36-4.089c-8.83-5.67-20.244-5.67-29.081,0.003l-6.355,4.086v-18.017c0-11.385,9.375-20.649,20.898-20.649
	C267.523,193.844,276.898,203.107,276.898,214.493z M252.752,246.008c1.972-1.265,4.521-1.267,6.491-0.003l120.477,77.448
	l-6.485,10.087l-111.585-71.731c-1.72-1.107-3.685-1.659-5.65-1.659c-1.964,0-3.93,0.553-5.65,1.659L138.767,333.54l-6.485-10.087
	L252.752,246.008z M26.561,293.094l6.549-14.661h74.194c5.77,0,10.449-4.679,10.449-10.449s-4.679-10.449-10.449-10.449H42.447
	l5.315-11.898h127.631v25.256l-34.534,22.201H36.571H26.561z M141.312,468.637H47.02V313.992h62.516
	c-0.916,1.204-1.579,2.596-1.906,4.102c-0.588,2.708-0.077,5.539,1.42,7.869l17.785,27.667c3.121,4.855,9.587,6.26,14.439,3.14
	l0.036-0.023v111.89H141.312z M280.297,468.637h-13.848v-27.174c0-5.77-4.679-10.449-10.449-10.449
	c-5.77,0-10.449,4.679-10.449,10.449v27.174h-13.848v-83.341h48.594V468.637z M349.79,468.637h-48.595v-93.79
	c0-5.77-4.679-10.449-10.449-10.449h-69.492c-5.77,0-10.449,4.679-10.449,10.449v93.79H162.21V343.323L256,283.029l93.79,60.294
	V468.637z M464.98,468.637h-94.292v-111.89l0.036,0.023c1.748,1.123,3.705,1.66,5.639,1.66c3.437,0,6.803-1.694,8.8-4.8
	l17.785-27.667c1.498-2.33,2.009-5.161,1.42-7.869c-0.327-1.507-0.99-2.899-1.906-4.102h62.517V468.637z M475.429,293.094H371.14
	l-34.535-22.201v-25.256H456.85l6.719,11.897h-63.124c-5.77,0-10.449,4.679-10.449,10.449c0,5.77,4.679,10.449,10.449,10.449h74.927
	l8.28,14.662H475.429z"/>
</svg>